<?xml version="1.0" encoding="UTF-8" standalone="no"?>
<svg
   version="1.0"
   width="400.50064pt"
   height="447.56363pt"
   viewBox="0 0 400.50064 447.56363"
   preserveAspectRatio="xMidYMid"
   id="svg4"
   sodipodi:docname="logo-complet.svg"
   xmlns:inkscape="http://www.inkscape.org/namespaces/inkscape"
   xmlns:sodipodi="http://sodipodi.sourceforge.net/DTD/sodipodi-0.dtd"
   xmlns="http://www.w3.org/2000/svg"
   xmlns:svg="http://www.w3.org/2000/svg">
  <defs
     id="defs4" />
  <sodipodi:namedview
     id="namedview4"
     pagecolor="#ffffff"
     bordercolor="#000000"
     borderopacity="0.25"
     inkscape:showpageshadow="2"
     inkscape:pageopacity="0.0"
     inkscape:pagecheckerboard="0"
     inkscape:deskcolor="#d1d1d1"
     inkscape:document-units="pt"
     showgrid="false"
     inkscape:zoom="0.3595709"
     inkscape:cx="1560.193"
     inkscape:cy="1059.5963"
     inkscape:window-width="2558"
     inkscape:window-height="1408"
     inkscape:window-x="1273"
     inkscape:window-y="0"
     inkscape:window-maximized="0"
     inkscape:current-layer="svg4">
    <inkscape:page
       x="0"
       y="-3.4713917e-14"
       width="400.50064"
       height="447.56366"
       id="page2"
       margin="0"
       bleed="0" />
  </sodipodi:namedview>
  <path
     d="m 197.2002,0.00239193 c -2.675,0.0375 -5.29961,0.5136 -9.09961,1.41359997 -6.8,1.6 -9.20108,2.8999 -43.60108,22.8999001 -14,8.1 -29.29902,16.9 -33.99902,19.5 -22.000001,12.2 -26.500201,14.999 -26.200201,15.999 0.1,0.6 -0.1998,0.801 -0.7998,0.501 -0.9,-0.6 -9.6001,4 -31.1001,16.5 -1.4,0.8 -5.70098,3.2994 -9.50098,5.3994 -3.8,2.1 -10.19873,5.8998 -14.19873,8.2998 -4,2.3 -7.50029,4.3008 -7.80029,4.3008 -0.3,0 -3.20029,1.799 -6.30029,3.999 -6.2,4.299998 -8.40069,7.000998 -12.20069,14.000998 l -2.3994100318992,4.5 V 221.31539 325.3149 L 2.500489,331.81588 c 2.7,6.9 10.6,16.09902 16.5,18.99902 1.7,0.8 4.59951,2.40059 6.49951,3.60059 1.9,1.2 11.20049,6.50039 20.50049,11.90039 9.4,5.4 21.09951,12.1 25.99951,15 5,2.8 18.20049,10.49951 29.500491,16.99951 11.3,6.5 23.4,13.49951 27,15.49951 3.6,2.1 8.09902,4.70078 9.99902,5.80078 1.9,1.1 6.70108,3.79961 10.60108,6.09961 4.6,2.7 7.8,3.89951 9,3.49951 1.4,-0.4 1.49912,-0.30009 0.59912,0.39991 -1,0.7 0.90049,2.20117 7.00049,5.70117 19.4,11.3 26.7999,13.6001 37.8999,11.6001 7.4,-1.3 13.80019,-4.09991 27.70019,-12.39991 5.9,-3.5 19.89971,-11.70068 31.19971,-18.20068 11.3,-6.5 21.90049,-12.59961 23.50049,-13.59961 1.7,-1 7.99951,-4.60098 13.99951,-8.00098 6.1,-3.5 15.39932,-8.89961 20.79932,-12.09961 5.3,-3.2 9.90117,-5.79931 10.20117,-5.79931 0.2,0 4.39922,-2.39981 9.19922,-5.29981 4.8,-2.9 16.10009,-9.50117 25.10009,-14.70117 18.1,-10.3 24.09991,-15.19912 28.89991,-23.09912 6.5,-10.9 6.30029,-7.5999 6.30029,-111.3999 0,-81.8 -0.19961,-94.90049 -1.59961,-100.00049 -2.8,-10.8 -9.00059,-19.0007 -18.60059,-24.200698 -2.9,-1.6 -11.10029,-6.3 -18.30029,-10.5 -7.1,-4.1 -24.19951,-13.8998 -37.99951,-21.7998 -28.7,-16.3 -49.50049,-28.2995 -61.00049,-34.9995 -44.5,-26.1000001 -47.59941,-27.7001001 -56.39941,-29.6001001 -4,-0.84999997 -6.7249,-1.25039997 -9.3999,-1.21289997 z M 191.45361,23.041492 c 1.99688,-0.3141 4.47188,0.849 10.54688,4.374 4.4,2.6 9.19883,5.2996 10.79883,6.0996 1.5,0.8 2.50019,1.7998 2.20019,2.2998 -0.3,0.5 -3.59931,2.5011 -7.29931,4.6011 -3.7,2.1 -8.29971,4.5997 -10.19971,5.6997 -1.9,1.1 -7.3,4.1002 -12,6.7002 -4.7,2.6 -13.90049,7.8001 -20.50049,11.6001 -20.5,11.7 -18.8001,10.9997 -22.1001,8.6997 -1.6,-1.1 -6.39961,-3.9003 -10.59961,-6.3003 -4.3,-2.3 -7.80029,-4.4995 -7.80029,-4.9995 0,-0.8 35.60049,-21.8011 46.00049,-27.1011 0.8,-0.4 5.09951,-2.8994 9.49951,-5.3994 4.4,-2.6 8.69951,-5.1005 9.49951,-5.5005 0.675,-0.4 1.28848,-0.6687 1.9541,-0.7734 z m 19.0459,6.1743 c 1.3,0 1.60049,0.399 1.00049,0.999 -0.7,0.7 -1.29951,0.7 -1.99951,0 -0.6,-0.6 -0.30098,-0.999 0.99902,-0.999 z m -104.2998,42.7002 c 0.7,-0.1 5.00019,2.0999 9.70019,4.8999 4.7,2.7 8.89951,4.9995 9.49951,4.9995 1.8,0 1.20088,3.0002 -0.59912,3.7002 -3.1,1.1 -47.800971,26.700198 -48.500971,27.700198 -0.7,1.1 -3.09981,0.1001 -11.29981,-4.8999 -2.7,-1.7 -6.19883,-3.7 -7.79883,-4.5 -3.3,-1.6 -3.10019,-2.6003 0.79981,-4.800298 1.7,-0.9 5.7,-3.2998 9,-5.2998 3.3,-2 8.7,-4.9998 12,-6.7998 3.3,-1.7 10.49902,-5.8 15.99902,-9 5.500001,-3.3 10.500201,-6 11.200201,-6 z M 39.399899,113.91599 c 0.2,-0.1 5.09951,2.6996 10.99951,6.0996 5.8,3.4 16.00108,9.20048 22.60108,13.00048 6.6,3.7 13.09902,7.49981 14.49902,8.29981 1.4,0.8 8.20069,4.69971 15.200691,8.69971 7.1,4 12.69951,7.70019 12.49951,8.20019 -0.2,0.5 -5.6,3.89961 -12,7.59961 -6.400001,3.7 -11.299911,7.1 -10.899911,7.5 0.4,0.5 0.10088,0.49961 -0.59912,0.0996 -0.7,-0.4 -2.50078,0.30068 -4.30078,1.70068 l -3.09961,2.39942 -7.10009,-4.1001 c -4,-2.3 -8.3002,-4.79971 -9.7002,-5.69971 -2.5,-1.6 -23.00049,-13.19951 -32.50049,-18.49951 -2.7,-1.5 -6.99951,-4.00049 -9.49951,-5.50049 -4.3,-2.7 -4.4001,-2.79961 -4.1001,-7.59961 0.3,-5.2 3.3,-11.30068 7.5,-15.20069 2.2,-2 9.1,-6.599 10.5,-6.999 z m -13.29931,74.69969 c 0.3,-0.4 32.79873,17.69922 35.19873,19.69922 0.5,0.4 0.30078,36.70117 -0.19922,37.20117 -0.2,0.2 -4.4003,-2.00136 -9.3003,-4.90136 -4.8,-3 -12.70048,-7.59971 -17.50048,-10.19971 l -8.79932,-4.80029 v -18.19922 c 0,-10.1 0.20059,-18.49981 0.60059,-18.79981 z m 0.49951,56.2002 c 0.6,0 3.39922,1.49883 6.19922,3.29883 6.9,4.5 19.30039,11.70136 23.90039,13.90136 2,1 3.90009,2.09903 4.10009,2.49903 0.4,0.7 1.19981,40.30058 0.79981,42.60058 0,0.5 -1.60029,-9e-5 -3.30029,-1.10009 -1.8,-1.1 -4.89981,-2.90049 -6.79981,-4.00049 -1.9,-1.1 -6.6,-3.79961 -10.5,-6.09961 -3.8,-2.3 -8.90019,-5.10069 -11.20019,-6.20069 l -4.29932,-1.99951 v -21.3999 c 0,-14.7 0.3001,-21.49951 1.1001,-21.49951 z m 110.200191,33 c 0.7,0 1.69981,0.39941 2.29981,0.89941 0.9,0.9 9.60019,6.00078 27.70019,16.30078 l 8.69971,4.99952 -0.0996,16.5996 c 0,9.2 -0.30098,17.00088 -0.50098,17.40088 -0.4,0.6 -19.29892,-9.90107 -29.89892,-16.60107 -2.8,-1.9 -6.10078,-3.69902 -7.30078,-3.99902 -2.1,-0.7 -2.2002,-1.20069 -2.2002,-18.20069 0,-13.6 0.30078,-17.39941 1.30078,-17.39941 z m -58.700681,19.99951 c 0.3,0 9.8,5.29971 21,11.69971 l 20.299801,11.80078 0.10108,31.69922 c 0,23.1 -0.3001,31.80029 -1.1001,31.80029 -0.7,0 -7.50029,-3.7002 -15.30029,-8.2002 -7.700001,-4.5 -16.100591,-9.2996 -18.600591,-10.5996 -2.5,-1.3 -5.09971,-2.89991 -5.69971,-3.39991 -1,-0.8 -1.29931,-8.60039 -1.29931,-32.90039 0,-17.6 0.29912,-31.8999 0.59912,-31.8999 z m -55.99951,6.7002 c 0.6,-0.6 3.5999,1.00048 24.3999,13.00048 6.9,4 13.10029,7.59952 13.80029,7.99952 0.9,0.6 1.29932,4.0998 1.29932,12.7998 v 12.7998 c -0.1,1 -6.7002,-2.4 -23.2002,-12 -7.4,-4.4 -14.29921,-8.20009 -15.19921,-8.60009 -1.5,-0.5 -1.70069,-2.29903 -1.70069,-12.99903 0,-6.8 0.30059,-12.60048 0.60059,-13.00048 z"
     style="display:inline;fill:#058ff1;fill-opacity:1;fill-rule:nonzero;stroke-width:0.09975;stroke-dasharray:none"
     id="path23" />
  <g
     transform="matrix(0.1,0,0,-0.1,-475.5,1123.8154)"
     fill="#000000"
     stroke="none"
     id="g4"
     style="fill:#c9e7f2;fill-opacity:1">
    <path
       d="m 5016.0059,9351.9971 c -4,-3 -6.0059,-86.9981 -6.0059,-187.9981 v -181.9922 l 87.9932,-48.0029 c 48,-26 127.0048,-71.9971 175.0048,-101.9971 49,-29 91.003,-51.0136 93.003,-49.0136 5,5 6.9922,368.0117 1.9922,372.0117 -24,20 -348.9873,200.9922 -351.9873,196.9922 z"
       style="display:inline;fill:#c9e7f2;fill-opacity:1"
       id="path44" />
    <path
       d="M 5021.001,8789.9951 C 5013.001,8789.9951 5010,8722 5010,8575 v -213.999 l 42.9932,-19.9951 c 23,-11 74.0019,-39.0069 112.0019,-62.0069 39,-23 86,-49.9961 105,-60.9961 19,-11 49.9981,-29.0049 67.9981,-40.0049 17,-11 33.0029,-16.0009 33.0029,-11.0009 4,23 -3.9981,419.0058 -7.9981,426.0058 -2,4 -21.0009,14.9903 -41.0009,24.9903 -46,22 -170.0039,94.0136 -239.0039,139.0136 -28,18 -55.9922,32.9883 -61.9922,32.9883 z"
       style="display:inline;fill:#c9e7f2;fill-opacity:1"
       id="path43" />
    <path
       d="m 4976.001,8192.998 c -3,-4 -6.0059,-62.0048 -6.0059,-130.0048 0,-107 2.0069,-124.9903 17.0069,-129.9903 9,-4 77.9921,-42.0009 151.9921,-86.0009 165,-96 231.002,-130 232.002,-120 V 7855 c 0,87 -3.9932,121.998 -12.9932,127.998 -7,4 -69.0029,39.9952 -138.0029,79.9952 -208,120 -237.999,136.0048 -243.999,130.0048 z"
       style="display:inline;fill:#c9e7f2;fill-opacity:1"
       id="path42" />
    <path
       d="m 5535.9961,8260 c -3,0 -5.9912,-142.999 -5.9912,-318.999 0,-243 2.9931,-321.0039 12.9931,-329.0039 6,-5 31.9971,-20.9991 56.9971,-33.9991 25,-13 109.0059,-60.996 186.0059,-105.996 78,-45 146.0029,-82.002 153.0029,-82.002 8,0 11.001,87.0029 11.001,318.0029 l -1.0108,316.9922 -202.998,118.0078 c -112,64 -207,116.9971 -210,116.9971 z"
       style="display:inline;fill:#c9e7f2;fill-opacity:1"
       id="path41" />
    <path
       d="m 5545.6201,9074.3799 c 4.125,-0.625 8.874,-2.376 13.374,-5.376 9,-6 99.0059,-59.0078 201.0059,-118.0078 l 184.9951,-108.0029 3.0029,-315.9961 c 1,-200 -1.0019,-316.9922 -7.0019,-316.9922 -6,0 -24.9893,9.998 -43.9893,22.998 -18,12 -108.0097,64.9971 -200.0097,116.9971 l -165.9961,94.9951 -0.9961,311.001 c 0,171 2.9912,314.0068 5.9912,317.0068 2,1.5 5.499,2.002 9.624,1.377 z"
       style="display:inline;fill:#c9e7f2;fill-opacity:1"
       id="path40" />
    <path
       d="m 6115.0049,8909.9951 c 3,0 90.9961,-50.0019 195.9961,-112.0019 105,-61 193,-115.9883 195,-122.9883 3,-6 2.9922,-66.0117 1.9922,-132.0117 L 6505.0049,8421.9971 6360,8506.0059 c -80,46 -169.0068,95.9912 -197.0068,110.9912 l -52.9981,26.997 v 133.0079 c 0,73 2.0098,132.9931 5.0098,132.9931 z"
       style="display:inline;fill:#c9e7f2;fill-opacity:1"
       id="path39" />
    <path
       d="m 6123.0029,8459.9951 c -10,0 -13.0078,-37.9941 -13.0078,-173.9941 0,-170 1.002,-175.0069 22.002,-182.0069 12,-3 45.0078,-20.9902 73.0078,-39.9902 106,-67 294.9892,-172.0107 298.9892,-166.0107 2,4 5.0098,82.0088 5.0098,174.0088 l 0.9961,165.996 -86.9971,49.9952 c -181,103 -268.0019,154.0078 -277.0019,163.0078 -6,5 -15.9981,8.9941 -22.9981,8.9941 z"
       style="display:inline;fill:#c9e7f2;fill-opacity:1"
       id="path38" />
    <path
       d="m 8472.9932,8818.999 c 4,1 7.0019,-96.998 7.0019,-217.998 v -218.9942 l -67.0019,-40.0048 c -229,-135 -295.9991,-170.9961 -303.9991,-165.9961 -6,3 -8.9941,94.9951 -8.9941,214.9951 l 0.9961,209.0039 52.0019,32.9883 c 29,19 94.9971,59.0039 146.9971,89.0039 52,30 111.0049,63.9961 130.0049,75.9961 19,11 37.9932,21.0058 42.9932,21.0058 z m 79.0136,-578.9941 c 4,0 7.9981,-58.0049 7.9981,-130.0049 v -128.9941 l -77.0069,-46.0108 c -250,-150 -366.0039,-213.9892 -374.0039,-208.9892 -5,3 -8.9941,61.997 -8.9941,131.997 l 0.9961,127.002 221.001,127.998 c 122,70 226.0097,127.002 230.0097,127.002 z"
       style="display:inline;fill:#c9e7f2;fill-opacity:1"
       id="path37" />
    <path
       d="m 7332.9932,7520.0049 c 4,0 7.0019,-53.0078 7.0019,-118.0078 0,-113 -1.0019,-118.9903 -22.0019,-129.9903 -13,-6 -98.9932,-56.0097 -192.9932,-110.0097 -93,-55 -173.9932,-96.9951 -177.9932,-94.9951 -5,3 -7.0097,53.998 -5.0097,112.998 l 3.0029,108.0029 79.9951,48.9991 c 44,26 84,50.0019 90,52.0019 5,2 35.9981,20.9932 67.9981,42.9932 32,21 62.0097,37.998 65.0097,37.998 4,0 22.9971,11.0049 41.9971,25.0049 19,13 37.9932,24.0049 42.9932,25.0049 z"
       style="display:inline;fill:#c9e7f2;fill-opacity:1"
       id="path36" />
    <path
       d="m 7342.002,8874.0039 c 5,-3 6.999,-68.9971 3.999,-146.9971 -2,-78 -4.9951,-203.0019 -4.9951,-277.0019 l -1.0108,-135 -92.9883,-52.9981 c -50,-29 -135.0019,-78.0029 -187.0019,-108.0029 -52,-31 -99.0078,-55.9971 -103.0078,-56.9971 -5,-1 -7.9981,123.9981 -7.9981,277.9981 v 279.9902 l 85.0049,50.0098 c 73,43 147,86.0019 270,157.0019 16,10 32.9981,14.9971 37.9981,11.9971 z M 7335,8128.999 c 6,1 9.9941,-42.0019 8.9941,-112.0019 0,-61 -0.9921,-159.002 -1.9921,-217.002 l -2.0069,-105 -41.001,-18.999 c -49,-24 -295.9941,-169.001 -323.9941,-191.001 -20,-16 -20.0049,-13.9931 -25.0049,197.0069 -3,117 -1.9931,218.0039 2.0069,224.0039 4,5 25.9951,19.9921 49.9951,31.9921 24,12 106.0029,59.9961 183.0029,105.9961 77,47 145,85.0049 150,85.0049 z"
       style="display:inline;fill:#c9e7f2;fill-opacity:1"
       id="path35" />
    <path
       d="m 7938.0029,9119.9951 c 9,0 12.001,-88.9971 11.001,-416.9971 -1,-230 -3.998,-429.0019 -7.998,-442.0019 -5,-18 -54.001,-51.9932 -191.001,-132.9932 -102,-60 -197.0069,-115.999 -212.0069,-123.999 l -27.9931,-15 V 8432.002 8875 l 92.9883,52.002 c 50,29 144.0117,83.9921 207.0117,121.9921 63,39 120.998,70.001 127.998,71.001 z m 4.9951,-1066.9922 c 4,-2 7.002,-98.0029 7.002,-213.0029 v -210 l -41.9971,-21.0059 c -40,-20 -74.0009,-39.997 -311.0009,-176.997 -88,-52 -102.003,-53.002 -93.003,-7.002 3,11 4.9951,101.0059 4.9951,201.0059 l 1.0108,180.9961 135,78.999 c 75,43 169.9883,100.0098 212.9883,125.0098 42,25 80.0048,43.997 85.0048,41.997 z M 6123.0029,7919.9951 c 7,0 71.002,-33.9961 142.002,-75.9961 72,-42 154.9951,-91.0029 184.9951,-108.0029 l 55.0049,-31.9922 2.9883,-137.0068 c 1,-75 1.0078,-136.9922 -1.9922,-136.9922 -2,0 -84.0069,45.9931 -182.0069,102.9931 -99,57 -186.9961,105.9952 -195.9961,109.9952 -16,6 -18.0029,22.0019 -18.0029,142.0019 0,103 3.0078,135 13.0078,135 z"
       style="display:inline;fill:#c9e7f2;fill-opacity:1"
       id="path34" />
    <path
       d="m 8384.0039,10018.999 c 5,1 29.002,-7.999 52.002,-18.999 63,-31 77.9873,-52.0029 81.9873,-123.0029 l 4.0136,-61.9922 -108.0029,-60 c -193,-108 -208.0039,-116.0029 -299.0039,-168.0029 -49,-28 -118.999,-68 -153.999,-90 -51,-31 -67.9951,-37.004 -79.9951,-29.004 -9,6 -60.0127,37.0088 -113.0127,69.0088 -54,32 -97.9981,59.9883 -97.9981,62.9883 0,3 26.0078,21.0049 58.0078,40.0049 31,18 83.001,48.998 116.001,67.998 32,19 75.9912,45.001 95.9912,56.001 36.2918,20.2873 72.7463,40.8299 108.0029,60.835 121.151,68.743 228.2678,131.1588 266.9971,155.1709 33,21.0001 64.0088,38.9941 69.0088,38.9941 z m 154.0576,-539.0478 c 21.375,4.5468 21.9434,-39.7061 21.9434,-209.9561 v -208.9892 l -92.0069,-54.0088 c -216,-127 -356.9921,-203.9951 -361.9921,-199.9951 -3,3 -5.0098,97.9921 -5.0098,211.9921 l -0.9961,206.001 92.0068,54.0088 c 51,30 137.9932,78.999 192.9932,108.999 55,31 110.999,64.0039 123.999,74.0039 12.5,9.5 21.9375,16.4287 29.0625,17.9444 z"
       style="display:inline;fill:#c9e7f2;fill-opacity:1"
       id="path33" />
    <path
       d="m 7946.9971,10130.005 c -7,0 -37.002,-15.003 -67.002,-33.003 -30,-19 -92.9951,-55.006 -139.9951,-81.006 -47,-24.9999 -102.9951,-56.994 -124.9951,-68.994 -22,-13 -65.9981,-38.001 -97.9981,-56.001 -109,-61 -151.0136,-87.002 -154.0136,-97.002 -2,-5 31.0117,-28.998 72.0117,-52.998 l 75,-41.9971 26.9971,18.999 c 16,11 51.0029,31.9922 78.0029,46.9922 28,16 63.9951,36.0108 79.9951,46.0108 17,9 102.0049,57.9882 190.0049,107.9882 88,50 170.9951,96.9999 184.9951,104.9999 35,20 33.9932,29 -2.0068,45 -18,8 -49.9903,25.013 -69.9903,38.013 -21,13 -43.0058,22.998 -51.0058,22.998 z"
       style="display:inline;fill:#c9e7f2;fill-opacity:1"
       id="path32" />
    <path
       d="m 7679.0039,10480 c -2,0 -13.0088,-7.996 -24.0088,-15.996 -11,-9 -32.9951,-23 -49.9951,-30 -16,-8 -62.9932,-35.004 -102.9932,-59.004 -41,-25 -78.0127,-45 -83.0127,-45 -5,0 -8.9941,-6.004 -8.9941,-14.004 0,-8 32.9971,-30.991 71.9971,-50.991 40,-21 97.0058,-53.012 126.0058,-72.012 l 53.9942,-33.999 86.997,48.999 c 47,27 112.0088,64.006 144.0088,81.006 31,18 56.9971,34.002 56.9971,37.002 0,2 -10.002,9.004 -22.002,14.004 -13,6 -38.9931,19.996 -57.9931,30.996 -19,11 -69.0059,40.995 -111.0059,64.995 -42,24 -77.9951,44.004 -79.9951,44.004 z"
       style="display:inline;fill:#c9e7f2;fill-opacity:1"
       id="path31" />
    <path
       d="m 6669.5361,11007.739 c -6.6562,-1.047 -12.791,-3.734 -19.541,-7.734 -8,-4 -50.9951,-29.005 -94.9951,-55.005 -44,-25 -86.9951,-49.994 -94.9951,-53.994 -104,-53 -460.0049,-263.011 -460.0049,-271.011 0,-5 35.0029,-26.995 78.0029,-49.995 42,-24 89.9961,-52.003 105.9961,-63.003 33,-23 16.001,-30.003 221.001,86.997 66,38 158.0049,90.001 205.0049,116.001 47,26 101,56.002 120,67.002 19,11 64.9971,35.997 101.9971,56.997 37,21 69.9931,41.011 72.9931,46.011 3,5 -7.0019,14.998 -22.0019,22.998 -16,8 -63.9883,34.996 -107.9883,60.996 -60.75,35.25 -85.5,46.881 -105.4688,43.74 z"
       style="display:inline;fill:#c9e7f2;fill-opacity:1"
       id="path30" />
    <path
       d="m 7113.999,10809.004 c -5,0 -25.0039,-9.998 -44.0039,-22.998 -19,-12 -63.9902,-39.008 -99.9902,-58.008 -117,-64 -163.0029,-92.996 -168.0029,-105.996 -2,-6 0.9912,-11.997 5.9912,-11.997 6,0 48.0136,-21.999 94.0136,-48.999 46,-27 125.9893,-74 178.9893,-105 53,-31 101.0068,-56.001 107.0068,-56.001 6,0 63.9942,29.991 128.9942,65.991 65,37 135.0058,76.001 156.0058,86.001 20,11 37.002,22.997 37.002,26.997 0,4 -19.0117,18.011 -42.0117,31.011 -24,13 -110.9893,63.002 -193.9893,112.002 -83,48 -155.0049,87.997 -160.0049,86.997 z"
       style="display:inline;fill:#c9e7f2;fill-opacity:1"
       id="path29" />
    <path
       d="m 7234.541,10218.145 c -12.2344,3.609 -28.541,-3.894 -64.541,-27.144 -83,-52 -227,-131.001 -240,-131.001 -6,0 -9.998,-5.997 -7.998,-11.997 5,-16 238.9931,-149.001 252.9931,-146.001 30,8 294.002,163.998 292.002,172.998 -4,10 -47.9922,36.999 -151.9922,93.999 -33,18 -64.0088,36.997 -69.0088,41.997 -3.75,3.5 -7.377,5.945 -11.4551,7.149 z"
       style="display:inline;fill:#c9e7f2;fill-opacity:1"
       id="path28" />
    <path
       d="m 5148.999,10098.994 c -14,-4 -83,-49.99 -105,-69.99 -42,-39.0001 -72,-100.0069 -75,-152.0069 -3,-48 -1.999,-48.9961 41.001,-75.9961 25,-15 67.9951,-40.0049 94.9951,-55.0049 95,-53 300.0049,-168.9951 325.0049,-184.9951 14,-9 57.002,-33.9971 97.002,-56.9971 l 71.0009,-41.001 30.9961,23.9942 c 18,14 36.0078,21.0068 43.0078,17.0068 7,-4 9.9912,-4.0039 5.9912,0.9961 -4,4 44.9991,38 108.9991,75 64,37 118,70.9961 120,75.9961 2,5 -53.9951,42.0019 -124.9951,82.0019 -70,40 -138.0069,78.9971 -152.0069,86.9971 -14,8 -78.9902,45.9981 -144.9902,82.9981 -66,38 -168.0108,96.0048 -226.0108,130.0048 -59,34 -107.9951,61.996 -109.9951,60.996 z"
       style="display:inline;fill:#c9e7f2;fill-opacity:1"
       id="path27" />
    <path
       d="m 6741.4746,9908.5352 c 12.791,-0.2227 23.5225,-4.9102 35.5225,-13.5352 20,-14 76.0097,-47.001 200.0097,-116.001 21,-12 152.9981,-87.999 292.9981,-168.999 140,-81 293.9931,-168.0039 342.9931,-194.0039 48,-26 86.9971,-51.001 86.9971,-56.001 0,-11 -156.9951,-102.9902 -679.9951,-399.9902 -91,-51 -190.9971,-108.9981 -221.9971,-127.9981 -37,-22 -64,-32.0078 -75,-28.0078 -10,4 -73.998,39.9951 -142.998,79.9951 -155,90 -320.0098,184.9991 -425.0098,243.9991 -135,75 -368.9941,214.0029 -383.9941,228.0029 -11,10 -1.0069,19.0059 57.9931,51.0059 40,21 128.9991,71.0019 198.9991,112.0019 70,41 152.0068,86.9893 182.0068,103.9893 30,17 71,40.0019 90,52.0019 19,12 71.0049,41.0098 115.0049,65.0098 118,63 145.9951,80.9961 139.9951,90.9961 -4,5 0,6.999 7.002,3.999 7,-3 44.998,12.9951 82.998,34.9951 48.125,26.875 75.1563,38.9112 96.4746,38.5401 z"
       style="display:inline;fill:#c9e7f2;fill-opacity:1"
       id="path47" />
    <path
       d="m 6618.999,10528.999 c -24,-2 -248.9941,-135.997 -248.9941,-146.997 0,-4 34.9883,-25.995 77.9883,-49.995 42,-24 122.0117,-70.008 177.0117,-103.008 154,-92 132.9971,-88.002 221.9971,-37.002 43,25 98.9912,56.997 125.9912,71.997 26,15 47.0068,29.999 47.0068,33.999 0,4 -35.0029,27.006 -78.0029,51.006 -42,24 -128.9932,74.998 -192.9932,112.998 -64,37 -123.0049,68.002 -130.0049,67.002 z"
       style="display:inline;fill:#c9e7f2;fill-opacity:1"
       id="path25" />
    <path
       d="m 5816.9971,10518.994 c -7,0 -57.002,-27 -112.002,-60 -55,-32 -126.9902,-73 -159.9902,-90 -33,-18 -87,-47.998 -120,-67.998 -33,-20 -73,-43.998 -90,-52.998 -39,-22 -40.9981,-32.003 -7.9981,-48.003 16,-8 50.9883,-28 77.9883,-45 82,-50 105.9981,-59.999 112.9981,-48.999 7,10 454.0097,266.002 485.0097,277.002 18,7 23.9912,37.002 5.9912,37.002 -6,0 -47.9951,22.995 -94.9951,49.995 -47,28 -90.0019,49.999 -97.0019,48.999 z"
       style="display:inline;fill:#c9e7f2;fill-opacity:1"
       id="path24" />
    <path
       d="m 6169.9951,10300 c -3,0 -114.9902,-62.995 -249.9902,-139.995 -135,-77 -248.0117,-140.01 -252.0117,-140.01 -5,0 -7.9981,-5.997 -7.9981,-11.997 0,-7 48.0108,-39.9931 106.0108,-72.9931 59,-33 124.9931,-69.9981 147.9931,-82.9981 22,-13 71.9951,-42.0136 109.9951,-64.0136 56,-33 73.0118,-39 87.0118,-30 20,13 357.9961,205.0126 435.9961,248.0128 29,16 52.998,33.994 52.998,38.994 0,11 -7,15.005 -210,130.005 -80,45 -161,90.993 -180,102.993 -19,12 -37.0049,22.002 -40.0049,22.002 z"
       style="display:inline;fill:#c9e7f2;fill-opacity:1"
       id="path46" />
  </g>
</svg>
